<svg xmlns="http://www.w3.org/2000/svg" width="200" height="200" fill="none" viewBox="0 0 200 200">
<!-- SVG created with Arrow, by QuiverAI (https://quiver.ai) -->
  <path d="m97.88 2.23h-73.03c-7.49 0-11.85 6.61-11.85 12.47v31.23c0 7.5 5.77 12.56 12.41 12.56h33.57c1.09 0 1.39 0.17 2.08 0.99 1.4 1.67 3.41 2.7 5.65 2.7 5.7 0 7.28-4.24 7.28-7.52 0-5.22-3.92-8.35-7.74-8.35-2.67 0-4.16 0.75-6.22 3.05-0.77 0.85-1.31 0.66-2.41 0.66h-31.34c-2.97 0-4.57-1.76-4.57-4.36v-31.04c0-2.54 1.67-4.24 4.07-4.24h62.5c2.85-3.36 6.04-6.46 9.6-8.15z" fill="url(#paint0_linear_213_106)"/>
  <path d="m29.32 30.71 5.8-5.69 7.2 7.16 13.85-14.96 5.44 5.73v0.46l-19.1 19.47-0.46-0.04-12.73-11.75v-0.38z" fill="url(#paint0_linear_213_106)"/>
  <path d="m173.2 2.23h-54.58c-16.52 0-29.37 14.68-29.37 32.11v7.57c0 15-10.52 29.92-28.94 29.92h-34.88c-7.22 0-12.33 5.86-12.33 13.39v30.39c0 7.3 5.54 12.76 12.44 12.76h32.54c0.85 0 0.85-0.06 1.5 0.85 1.35 2.04 3.41 3.19 6.35 3.19 5.28 0 7.91-4.35 7.91-7.98 0-5.35-3.99-8.52-7.91-8.52-2.9 0-4.5 1-6.6 3.37-0.52 0.58-0.75 0.38-1.6 0.38h-31.4c-3.22 0-4.6-1.8-4.6-4.45v-29.9c0-3.05 1.35-4.75 3.96-4.75h34.54c19.63 0 37.12-16.15 37.12-38.45v-8.93c0-12.09 9.75-22.87 21.39-22.87h53.84c3.56 0 4.73 2.67 4.73 4.86l-0.2 13.74 0.2 16.6c0 2.98-1.68 4.51-4.43 4.51l-44.67-0.31c-23.48 0-39.46 19.28-39.46 41.61v16.02c0 16.57-12.11 34.38-32.66 34.38h-29.87c-7.49 0-12.93 5.58-12.93 13.42v30.35c0 7.14 5.62 12.12 11.91 12.12h45.63c14.9 0 26.77-13.85 26.77-28.3v-16.65c0-13.37 10.44-24.14 23.56-24.14h29.98c7.49 0 12.49-5.86 12.49-13.39v-29.12c0-8.4-5.88-13.98-11.84-13.98h-24.35c-1.09 0-1.39-0.12-2.08-1.02-1.56-2.08-3.42-2.8-6.16-2.8-5.36 0-8.41 4.9-8.41 8.22 0 5.18 4.3 8.08 8.04 8.08 2.82 0 4.71-1.33 6.31-3.6h25.31c2.94 0 4.38 2.42 4.38 4.9v28.94c0 3.28-1.44 4.72-4.3 4.72h-29.37c-19.06 0-31.91 15.71-31.91 33.94v15.75c0 10-8.25 19.77-19.32 19.77h-43.29c-3.31 0-4.79-1.87-4.79-4.81v-28.94c0-3.5 1.4-5.16 4.18-5.16h30.52c22.41 0 40.38-19.28 40.38-42.68v-14.64c0-17.77 12.96-34.49 31.28-34.49h45.26c7.18 0 12.29-5.98 12.29-12.83v-31.58c0-6.54-5.52-11.57-12.56-11.57z" fill="url(#paint0_linear_213_106)"/>
  <path d="m29.32 99.79 5.8-5.28 7.2 6.81 13.93-13.55 5.36 5.45v0.35l-19.1 18.85-0.46-0.04-12.73-12.24v-0.35z" fill="url(#paint0_linear_213_106)"/>
  <path d="m29.51 169.5 5.8-5.28 7.01 7.02 13.93-14.1 5.36 5.5v0.35l-18.91 19.2-0.46-0.04-12.73-12.3v-0.35z" fill="url(#paint0_linear_213_106)"/>
  <defs>
    <linearGradient id="paint0_linear_213_106" x1="13" x2="185.7" y1="184.9" y2="12.34" gradientUnits="userSpaceOnUse">
      <stop stop-color="#1762C5" offset="0"/>
      <stop stop-color="#38D0E5" offset="1"/>
    </linearGradient>
  </defs>
</svg>